<svg id="_0510_pie_chart_1" xmlns="http://www.w3.org/2000/svg" viewBox="0 0 500 500" data-imageid="chart-1-2" imageName="Chart 1" class="illustrations_image" style="width: 164px;"><defs><style>.cls-1_chart-1-2{fill:#fff;}.cls-2_chart-1-2{opacity:.46;}.cls-2_chart-1-2,.cls-3_chart-1-2,.cls-4_chart-1-2{fill:none;}.cls-5_chart-1-2{fill:#a5a5a5;}.cls-6_chart-1-2{fill:#e6e6e6;}.cls-3_chart-1-2{opacity:.08;}.cls-4_chart-1-2{opacity:.3;}.cls-7_chart-1-2{fill:#24285b;}.cls-8_chart-1-2{fill:#000001;}.cls-9_chart-1-2{fill:#ffd200;}.cls-10_chart-1-2{fill:#68e1fd;}</style></defs><g id="bg_chart-1-2" class="cls-4_chart-1-2"><path class="cls-6_chart-1-2" d="m384.19,62.53c47.93,26.56,84.87,96.26,94.14,181.54,7.81,71.87-6.14,159.05-85.28,195.83-80.77,37.55-287.56,76.1-347.53-71.8C-.52,254.55,13.73,101.88,99.89,53.53c60.4-33.9,190.7-42.87,284.31,9Z"/></g><g id="wheel_chart_chart-1-2"><path class="cls-10_chart-1-2 targetColor" d="m444.7,198.05l-135.76,43.41c-7.26-21.27-27.41-36.56-51.14-36.56V62.4c87.29,0,161.29,56.92,186.9,135.65Z" style="fill: rgb(205, 104, 253);"/><g class="cls-3_chart-1-2"><path class="cls-8_chart-1-2" d="m444.7,198.05l-135.76,43.41c-7.26-21.27-27.41-36.56-51.14-36.56V62.4c87.29,0,161.29,56.92,186.9,135.65Z"/></g><path class="cls-7_chart-1-2" d="m402.42,258.94c0,48.42-23.79,91.27-60.3,117.51l-52.3-74.09c13.32-9.83,21.95-25.61,21.95-43.43,0-4.88-.65-9.62-1.87-14.13l.08-.02,87.43-23.71c3.27,12.06,5.02,24.75,5.02,37.85Z"/><path class="cls-10_chart-1-2 targetColor" d="m353.35,407.65c-27.54,17.77-60.36,28.05-95.56,28.05-37.24,0-71.81-11.53-100.3-31.22l71.98-99.62c8.23,5.08,17.93,8.02,28.32,8.02s20.53-3.06,28.87-8.38l66.68,103.14Z" style="fill: rgb(205, 104, 253);"/><g class="cls-2_chart-1-2"><path class="cls-1_chart-1-2" d="m353.35,407.65c-27.54,17.77-60.36,28.05-95.56,28.05-37.24,0-71.81-11.53-100.3-31.22l71.98-99.62c8.23,5.08,17.93,8.02,28.32,8.02s20.53-3.06,28.87-8.38l66.68,103.14Z"/></g><path class="cls-10_chart-1-2 targetColor" d="m225.16,301.88l-101.69,133.82s-62.37-45.39-79.11-120.72c-16.74-75.35,3.11-120.72,3.11-120.72l158.73,48.81c-1.53,5.02-2.36,10.35-2.36,15.86,0,17.53,8.36,33.11,21.33,42.95Z" style="fill: rgb(205, 104, 253);"/><path class="cls-7_chart-1-2" d="m253.71,205.15c-20.98,1.55-38.62,15.12-46.08,33.84,0,0-45.23-14.58-62.09-20.38,16.07-44.78,58.18-77.14,108.07-78.85l.1,65.39Z"/><path class="cls-5_chart-1-2" d="m257.8,300.32c-22.73,0-41.23-18.5-41.23-41.23s18.5-41.23,41.23-41.23,41.23,18.5,41.23,41.23-18.5,41.23-41.23,41.23Zm0-71.36c-16.61,0-30.13,13.51-30.13,30.13s13.51,30.13,30.13,30.13,30.13-13.51,30.13-30.13-13.51-30.13-30.13-30.13Z"/><path class="cls-6_chart-1-2" d="m257.8,300.32c-10.09,0-19.81-3.69-27.35-10.38l7.37-8.31c5.51,4.89,12.61,7.58,19.98,7.58v11.11Z"/><path class="cls-7_chart-1-2" d="m299.03,259.08h-11.11c0-16.61-13.51-30.13-30.13-30.13v-11.11c22.73,0,41.23,18.5,41.23,41.23Z"/><path class="cls-9_chart-1-2" d="m257.8,300.32v-11.11c16.61,0,30.13-13.51,30.13-30.13h11.11c0,22.73-18.5,41.23-41.23,41.23Z"/><g class="cls-3_chart-1-2"><path class="cls-8_chart-1-2" d="m258.71,245.74c.73,0,.96.25.96.99v1.56c2.93.41,4.62,1.88,5.86,4.42.38.76.22,1.18-.64,1.56l-1.56.7c-.73.35-1.08.19-1.5-.57-.86-1.66-1.91-2.45-4.07-2.45-2.71,0-3.95.8-3.95,2.61,0,1.18,1.08,1.91,2.2,2.13.54.13,1.31.25,2.29.35,1.78.16,2.67.29,4.23.83.8.29,1.4.61,1.88,1.02.89.83,1.69,2.42,1.69,4.46,0,3.47-2.32,5.83-6.43,6.43v1.66c0,.73-.22.99-.96.99h-1.75c-.73,0-.99-.25-.99-.99v-1.62c-3.18-.41-5.32-2.04-6.37-4.9-.25-.7,0-1.18.73-1.46l1.56-.57c.8-.29,1.15-.1,1.5.7.7,1.78,2.13,2.67,4.3,2.67,2.93,0,4.39-.92,4.39-2.8,0-.99-.45-1.59-1.37-1.97-.92-.35-1.72-.48-3.15-.6-1.75-.16-2.74-.35-4.27-.92-.76-.29-1.37-.64-1.85-1.05-.96-.86-1.72-2.39-1.72-4.33,0-3.44,2.17-5.73,6.24-6.27v-1.56c0-.73.25-.99.99-.99h1.75Z"/></g><rect class="cls-6_chart-1-2" x="78.22" y="109.63" width="77.59" height="9.71"/><rect class="cls-6_chart-1-2" x="78.22" y="128.05" width="72.98" height="9.71"/><rect class="cls-6_chart-1-2" x="78.22" y="149" width="57.09" height="9.71"/><rect class="cls-6_chart-1-2" x="391.75" y="348.64" width="47.75" height="9.71"/><rect class="cls-6_chart-1-2" x="391.75" y="369.6" width="37.36" height="9.71"/></g><g id="stat_chart-1-2"><rect class="cls-5_chart-1-2" x="331" y="164.99" width="142.83" height="89.86"/><g class="cls-2_chart-1-2"><polygon class="cls-1_chart-1-2" points="344.76 245.74 344.76 224.6 364.89 206.76 381.06 223.48 402.42 199.3 419.82 223.07 460.08 186.94 460.08 245.74 344.76 245.74"/></g><g class="cls-2_chart-1-2"><rect class="cls-1_chart-1-2" x="344.76" y="174.11" width="40.39" height="5.46"/></g><g class="cls-2_chart-1-2"><rect class="cls-1_chart-1-2" x="344.76" y="186.94" width="34.51" height="5.46"/></g></g></svg>