<svg id="_0147_rocket_launch" xmlns="http://www.w3.org/2000/svg" viewBox="0 0 500 500" data-imageid="rocket-launch-15" imageName="Rocket Launch" class="illustrations_image" style="width: 164px;"><defs><style>.cls-1_rocket-launch-15{fill:#fff;}.cls-2_rocket-launch-15{opacity:.11;}.cls-2_rocket-launch-15,.cls-3_rocket-launch-15,.cls-4_rocket-launch-15,.cls-5_rocket-launch-15,.cls-6_rocket-launch-15{fill:none;}.cls-3_rocket-launch-15{opacity:.16;}.cls-4_rocket-launch-15{opacity:.42;}.cls-5_rocket-launch-15{opacity:.7;}.cls-7_rocket-launch-15{fill:#e6e6e6;}.cls-6_rocket-launch-15{opacity:.08;}.cls-8_rocket-launch-15{fill:#24285b;}.cls-9_rocket-launch-15{fill:#000001;}.cls-10_rocket-launch-15{fill:#ffd200;}.cls-11_rocket-launch-15{fill:#68e1fd;}</style></defs><g id="bg_rocket-launch-15"><path class="cls-8_rocket-launch-15" d="m156.48,49.7C78.07,66.98,25.82,142.66,40.29,221.63c6.91,37.7,29.08,75.1,84.77,92.56,133.67,41.92,284.34,21,310.9-61.5,26.56-82.5,9.37-135.62-55.46-177.02-41.88-26.74-142.1-44.03-224.03-25.98Z"/><circle class="cls-1_rocket-launch-15" cx="89.61" cy="218.6" r="4.95"/><circle class="cls-1_rocket-launch-15" cx="201.61" cy="71.77" r="4.95"/><circle class="cls-1_rocket-launch-15" cx="329.96" cy="173.89" r="4.95"/><circle class="cls-1_rocket-launch-15" cx="313.31" cy="80.64" r="2.37"/><circle class="cls-1_rocket-launch-15" cx="419.06" cy="199.59" r="2.37"/><circle class="cls-1_rocket-launch-15" cx="366.18" cy="295.96" r="2.37"/><circle class="cls-1_rocket-launch-15" cx="175.47" cy="302.42" r="2.37"/><g class="cls-6_rocket-launch-15"><circle class="cls-1_rocket-launch-15" cx="143.48" cy="138.51" r="48.93"/></g><circle class="cls-10_rocket-launch-15" cx="143.48" cy="138.51" r="38.8"/><g class="cls-6_rocket-launch-15"><circle class="cls-9_rocket-launch-15" cx="130.01" cy="121.47" r="8.13"/></g><g class="cls-6_rocket-launch-15"><circle class="cls-9_rocket-launch-15" cx="154.46" cy="120.94" r="5.44"/></g></g><g id="rocket_rocket-launch-15"><g class="cls-4_rocket-launch-15"><path class="cls-7_rocket-launch-15" d="m119.15,453.8s-38.69,2.7-54.59-3.82c-15.9-6.52-4.48-25.27,11.01-29.35,15.49-4.08,24.87,18.34,31.8-2.45,6.93-20.79,24.99-31.07,36.55-16.96,11.55,14.11,23.38,18.59,35.61,5.95,12.23-12.64,23.49-2.31,28.46,16.17,4.97,18.48,62.45-16.99,84.46-10.06,22.01,6.93,38.73,27.31,52.18,5.3,13.45-22.01,29.35-27.72,38.32-14.68,8.97,13.04,11.82,28.54,27.72,16.71s37.5-1.22,31.39,12.64c-6.11,13.86-47.1,18.53-47.1,18.53,0,0-237.91-11.71-275.79,2Z"/></g><path class="cls-7_rocket-launch-15" d="m234.35,351.16s3,50.7-13.72,59.12-20.43,5.76-37.85,17.38c-17.43,11.61-8.25-28.74-34.85-26.91-26.6,1.83-16.62,22.93-16.62,22.93,0,0-22.92-22.35-34.79-2.92-11.88,19.43-6.14,37.77,47.4,32.27,53.54-5.5,92.85,1.98,139.23.99s131.69,8.18,136.27-17.5c4.59-25.68-19.26-37.06-44.03-22.66-24.76,14.4-20.63-18.78-49.3-3.56-28.67,15.22-63.37.15-72.04-67.01l-19.7,7.87Z"/><polygon class="cls-11_rocket-launch-15 targetColor" points="208.39 207.19 145.67 277.17 213.99 277.17 208.39 207.19" style="fill: rgb(205, 104, 253);"/><polygon class="cls-11_rocket-launch-15 targetColor" points="284.99 207.19 347.71 277.17 279.39 277.17 284.99 207.19" style="fill: rgb(205, 104, 253);"/><path class="cls-11_rocket-launch-15 targetColor" d="m245.33,95.19v-.4s-.07.07-.21.2c-.14-.13-.22-.2-.22-.2v.42c-5.45,5.48-60.12,65.47-28.62,235.69h60.54c31.49-170.41-25.91-230.34-31.49-235.71Z" style="fill: rgb(205, 104, 253);"/><g class="cls-2_rocket-launch-15"><path class="cls-8_rocket-launch-15" d="m281.97,181.62l1.74,12.06s-23.12,10.72-51.75,8.3c-9.59-.81-18.95,3.21-24.79,10.86h0s1.78-24.81,2.98-30.51l71.82-.71Z"/></g><g class="cls-5_rocket-launch-15"><path class="cls-1_rocket-launch-15" d="m245.33,95.19v-.4s-.07.07-.21.2c-.14-.13-.22-.2-.22-.2v.42c-5.45,5.48-60.12,65.47-28.62,235.69h60.54c31.49-170.41-25.91-230.34-31.49-235.71Z"/></g><g class="cls-6_rocket-launch-15"><path class="cls-9_rocket-launch-15" d="m224.07,237.48l-16.9,18.95s0,20.7,5.1,50.33l42.6-31.63-30.81-37.65Z"/></g><polygon class="cls-10_rocket-launch-15" points="213.99 317.79 216.28 330.89 277.37 330.89 279.79 317.79 213.99 317.79"/><path class="cls-10_rocket-launch-15" d="m213.13,166.75l-.13.36c-1.66,4.66-2.68,9.15-2.68,14.09l-.17,1.12s33.97,19.3,71.82-.71h0c.18-.67.27-1.36.25-2.05-.13-4.41-1.09-8.77-2.84-12.83h0s-66.25,0-66.25,0Z"/><polygon class="cls-11_rocket-launch-15 targetColor" points="213.99 317.79 216.28 330.89 277.37 330.89 279.79 317.79 213.99 317.79" style="fill: rgb(205, 104, 253);"/><path class="cls-11_rocket-launch-15 targetColor" d="m213.13,166.75l-.13.36c-1.66,4.66-2.68,9.15-2.68,14.09l-.17,1.12s33.97,19.3,71.82-.71h0c.18-.67.27-1.36.25-2.05-.13-4.41-1.09-8.77-2.84-12.83h0s-66.25,0-66.25,0Z" style="fill: rgb(205, 104, 253);"/><g class="cls-6_rocket-launch-15"><polygon class="cls-9_rocket-launch-15" points="213.99 317.79 216.28 330.89 277.37 330.89 279.79 317.79 213.99 317.79"/></g><g class="cls-6_rocket-launch-15"><path class="cls-9_rocket-launch-15" d="m213.13,166.75l-.13.36c-1.66,4.66-2.68,9.15-2.68,14.09l-.17,1.12s33.97,19.3,71.82-.71h0c.18-.67.27-1.36.25-2.05-.13-4.41-1.09-8.77-2.84-12.83h0s-66.25,0-66.25,0Z"/></g><path class="cls-11_rocket-launch-15 targetColor" d="m213.13,166.75s32.11,14.94,66.25,0c0,0-4.8-46.85-27.58-73.77-2.93-3.46-8.29-3.39-11.11.17-7.49,9.43-20.67,31.23-27.57,73.61Z" style="fill: rgb(205, 104, 253);"/><circle class="cls-11_rocket-launch-15 targetColor" cx="247.02" cy="250.79" r="26.39" style="fill: rgb(205, 104, 253);"/><circle class="cls-8_rocket-launch-15" cx="247.02" cy="250.79" r="16.12"/><g class="cls-3_rocket-launch-15"><circle class="cls-1_rocket-launch-15" cx="250.79" cy="245.1" r="5.68"/></g><polygon class="cls-11_rocket-launch-15 targetColor" points="216.28 330.89 179.83 374.95 256.19 348.71 256.19 330.89 216.28 330.89" style="fill: rgb(205, 104, 253);"/><polygon class="cls-11_rocket-launch-15 targetColor" points="277.09 330.89 313.55 374.95 237.19 348.71 237.19 330.89 277.09 330.89" style="fill: rgb(205, 104, 253);"/></g></svg>