<svg id="visual" viewBox="0 0 900 600" width="900" height="600" xmlns="http://www.w3.org/2000/svg" xmlns:xlink="http://www.w3.org/1999/xlink" version="1.1"><rect x="0" y="0" width="900" height="600" fill="#0000ff"></rect><defs><linearGradient id="grad1_0" x1="33.3%" y1="0%" x2="100%" y2="100%"><stop offset="20%" stop-color="#4992ff" stop-opacity="1"></stop><stop offset="80%" stop-color="#4992ff" stop-opacity="1"></stop></linearGradient></defs><defs><linearGradient id="grad1_1" x1="33.3%" y1="0%" x2="100%" y2="100%"><stop offset="20%" stop-color="#4992ff" stop-opacity="1"></stop><stop offset="80%" stop-color="#2b85ff" stop-opacity="1"></stop></linearGradient></defs><defs><linearGradient id="grad1_2" x1="33.3%" y1="0%" x2="100%" y2="100%"><stop offset="20%" stop-color="#0077ff" stop-opacity="1"></stop><stop offset="80%" stop-color="#2b85ff" stop-opacity="1"></stop></linearGradient></defs><defs><linearGradient id="grad1_3" x1="33.3%" y1="0%" x2="100%" y2="100%"><stop offset="20%" stop-color="#0077ff" stop-opacity="1"></stop><stop offset="80%" stop-color="#0069ff" stop-opacity="1"></stop></linearGradient></defs><defs><linearGradient id="grad1_4" x1="33.3%" y1="0%" x2="100%" y2="100%"><stop offset="20%" stop-color="#0059ff" stop-opacity="1"></stop><stop offset="80%" stop-color="#0069ff" stop-opacity="1"></stop></linearGradient></defs><defs><linearGradient id="grad1_5" x1="33.3%" y1="0%" x2="100%" y2="100%"><stop offset="20%" stop-color="#0059ff" stop-opacity="1"></stop><stop offset="80%" stop-color="#0047ff" stop-opacity="1"></stop></linearGradient></defs><defs><linearGradient id="grad1_6" x1="33.3%" y1="0%" x2="100%" y2="100%"><stop offset="20%" stop-color="#0030ff" stop-opacity="1"></stop><stop offset="80%" stop-color="#0047ff" stop-opacity="1"></stop></linearGradient></defs><defs><linearGradient id="grad1_7" x1="33.3%" y1="0%" x2="100%" y2="100%"><stop offset="20%" stop-color="#0030ff" stop-opacity="1"></stop><stop offset="80%" stop-color="#0000ff" stop-opacity="1"></stop></linearGradient></defs><defs><linearGradient id="grad2_0" x1="0%" y1="0%" x2="66.7%" y2="100%"><stop offset="20%" stop-color="#4992ff" stop-opacity="1"></stop><stop offset="80%" stop-color="#4992ff" stop-opacity="1"></stop></linearGradient></defs><defs><linearGradient id="grad2_1" x1="0%" y1="0%" x2="66.7%" y2="100%"><stop offset="20%" stop-color="#2b85ff" stop-opacity="1"></stop><stop offset="80%" stop-color="#4992ff" stop-opacity="1"></stop></linearGradient></defs><defs><linearGradient id="grad2_2" x1="0%" y1="0%" x2="66.7%" y2="100%"><stop offset="20%" stop-color="#2b85ff" stop-opacity="1"></stop><stop offset="80%" stop-color="#0077ff" stop-opacity="1"></stop></linearGradient></defs><defs><linearGradient id="grad2_3" x1="0%" y1="0%" x2="66.7%" y2="100%"><stop offset="20%" stop-color="#0069ff" stop-opacity="1"></stop><stop offset="80%" stop-color="#0077ff" stop-opacity="1"></stop></linearGradient></defs><defs><linearGradient id="grad2_4" x1="0%" y1="0%" x2="66.7%" y2="100%"><stop offset="20%" stop-color="#0069ff" stop-opacity="1"></stop><stop offset="80%" stop-color="#0059ff" stop-opacity="1"></stop></linearGradient></defs><defs><linearGradient id="grad2_5" x1="0%" y1="0%" x2="66.7%" y2="100%"><stop offset="20%" stop-color="#0047ff" stop-opacity="1"></stop><stop offset="80%" stop-color="#0059ff" stop-opacity="1"></stop></linearGradient></defs><defs><linearGradient id="grad2_6" x1="0%" y1="0%" x2="66.7%" y2="100%"><stop offset="20%" stop-color="#0047ff" stop-opacity="1"></stop><stop offset="80%" stop-color="#0030ff" stop-opacity="1"></stop></linearGradient></defs><defs><linearGradient id="grad2_7" x1="0%" y1="0%" x2="66.7%" y2="100%"><stop offset="20%" stop-color="#0000ff" stop-opacity="1"></stop><stop offset="80%" stop-color="#0030ff" stop-opacity="1"></stop></linearGradient></defs><g transform="translate(900, 0)"><path d="M0 459.7C-89.3 452.8 -178.5 445.9 -229.9 398.1C-281.2 350.3 -294.5 261.7 -326.5 188.5C-358.5 115.3 -409.1 57.7 -459.7 0L0 0Z" fill="#0020ff"></path><path d="M0 402.2C-78.1 396.2 -156.2 390.2 -201.1 348.4C-246 306.5 -257.7 229 -285.7 164.9C-313.7 100.9 -358 50.5 -402.2 0L0 0Z" fill="#003cff"></path><path d="M0 344.8C-67 339.6 -133.9 334.4 -172.4 298.6C-210.9 262.8 -220.9 196.3 -244.9 141.4C-268.9 86.5 -306.8 43.2 -344.8 0L0 0Z" fill="#0050ff"></path><path d="M0 287.3C-55.8 283 -111.6 278.7 -143.7 248.8C-175.7 219 -184.1 163.5 -204.1 117.8C-224 72.1 -255.7 36 -287.3 0L0 0Z" fill="#0061ff"></path><path d="M0 229.9C-44.6 226.4 -89.3 223 -114.9 199.1C-140.6 175.2 -147.3 130.8 -163.2 94.3C-179.2 57.7 -204.5 28.8 -229.9 0L0 0Z" fill="#0070ff"></path><path d="M0 172.4C-33.5 169.8 -67 167.2 -86.2 149.3C-105.4 131.4 -110.4 98.1 -122.4 70.7C-134.4 43.2 -153.4 21.6 -172.4 0L0 0Z" fill="#157eff"></path><path d="M0 114.9C-22.3 113.2 -44.6 111.5 -57.5 99.5C-70.3 87.6 -73.6 65.4 -81.6 47.1C-89.6 28.8 -102.3 14.4 -114.9 0L0 0Z" fill="#3b8cff"></path><path d="M0 57.5C-11.2 56.6 -22.3 55.7 -28.7 49.8C-35.1 43.8 -36.8 32.7 -40.8 23.6C-44.8 14.4 -51.1 7.2 -57.5 0L0 0Z" fill="#4992ff"></path></g><g transform="translate(0, 600)"><path d="M0 -459.7C103.6 -461.1 207.2 -462.4 229.9 -398.1C252.5 -333.8 194.3 -203.8 219.1 -126.5C243.9 -49.2 351.8 -24.6 459.7 0L0 0Z" fill="#0020ff"></path><path d="M0 -402.2C90.6 -403.4 181.3 -404.6 201.1 -348.4C221 -292.1 170 -178.3 191.7 -110.7C213.4 -43 307.8 -21.5 402.2 0L0 0Z" fill="#003cff"></path><path d="M0 -344.8C77.7 -345.8 155.4 -346.8 172.4 -298.6C189.4 -250.4 145.7 -152.9 164.3 -94.9C182.9 -36.9 263.9 -18.4 344.8 0L0 0Z" fill="#0050ff"></path><path d="M0 -287.3C64.7 -288.2 129.5 -289 143.7 -248.8C157.8 -208.6 121.4 -127.4 136.9 -79.1C152.5 -30.7 219.9 -15.4 287.3 0L0 0Z" fill="#0061ff"></path><path d="M0 -229.9C51.8 -230.5 103.6 -231.2 114.9 -199.1C126.3 -166.9 97.1 -101.9 109.6 -63.3C122 -24.6 175.9 -12.3 229.9 0L0 0Z" fill="#0070ff"></path><path d="M0 -172.4C38.8 -172.9 77.7 -173.4 86.2 -149.3C94.7 -125.2 72.9 -76.4 82.2 -47.4C91.5 -18.4 131.9 -9.2 172.4 0L0 0Z" fill="#157eff"></path><path d="M0 -114.9C25.9 -115.3 51.8 -115.6 57.5 -99.5C63.1 -83.5 48.6 -51 54.8 -31.6C61 -12.3 88 -6.1 114.9 0L0 0Z" fill="#3b8cff"></path><path d="M0 -57.5C12.9 -57.6 25.9 -57.8 28.7 -49.8C31.6 -41.7 24.3 -25.5 27.4 -15.8C30.5 -6.1 44 -3.1 57.5 0L0 0Z" fill="#4992ff"></path></g></svg>